<svg width="22" height="20" viewBox="0 0 22 20" fill="none" xmlns="http://www.w3.org/2000/svg">
<path d="M20.1006 15.6875C20.0186 15.8054 19.9338 15.9208 19.8467 16.0361C19.5697 16.4003 19.2675 16.7472 18.9443 17.0703C17.5077 18.5069 15.6393 19.5105 13.5459 19.8594L6.03223 12.3447L8.3877 9.9873H8.38965L8.39258 9.98438L20.1006 15.6875Z" fill="#D3222A"/>
<path d="M20.0254 4.21289C21.19 5.84698 21.873 7.84521 21.873 10C21.873 12.1162 21.2189 14.074 20.1006 15.6875L8.3916 9.98438L20.0254 4.21289Z" fill="#EE312E"/>
<path d="M13.5459 19.8584C13.0023 19.9507 12.4433 20 11.874 20H3.7002L4.89355 13.4805L6.03223 12.3447L13.5459 19.8584Z" fill="#AF292E"/>
<path d="M7.40379 10.0009L4.93727 11.2299L3.69979 13.7007L2.46653 11.2299L0 10.0009L2.46653 8.7634L3.69979 6.29688L3.71242 6.31792L4.93727 8.7634L7.40379 10.0009Z" fill="#1E1E1E"/>
<path d="M13.5439 0.141602C16.04 0.559836 18.2233 1.90416 19.7266 3.80762C19.8316 3.94086 19.9316 4.07452 20.0264 4.21289L8.39258 9.98438H8.38672L6.04492 7.63965L13.5439 0.141602Z" fill="#D3222A"/>
<path d="M11.874 0C12.4434 2.15682e-05 13.0002 0.0482901 13.5439 0.140625L6.04492 7.63965L4.88281 6.47754L3.7002 0H11.874Z" fill="#AF292E"/>
<path d="M9.65975 9.9996L4.55273 4.89258V6.59492L7.53183 9.9996L4.55273 12.9787V15.1066L9.65975 9.9996Z" fill="#F8F8FA"/>
<path d="M9.66016 10L4.55273 15.1064V12.9785L7.53223 10L4.55273 6.59473V4.89258L9.66016 10Z" fill="#F8F8FA"/>
</svg>
